# xmcd
#
# Track frame offsets: 
#        150
#        15463
#        25930
#        37241
#        46095
#        56756
#        65929
#        78683
#        91355
#        100607
#
# Disc length: 1495 seconds
#
# Revision: 0
# Processed by: cddbd v1.5.2PL0 Copyright (c) Steve Scherf et al.
# Submitted via: ExactAudioCopy v0.99pb4
#
DISCID=8105d50a
DTITLE=Chuck Wagon Gang  - He Knew Me
DYEAR=1900
DGENRE=Gospel
TTITLE0=He Knew Me
TTITLE1=When We All Get To Heaven
TTITLE2=Shenandoah 
TTITLE3=Sing To Me Of Heaven
TTITLE4=What A Friend We Have In Jesus
TTITLE5=I Know My Lord's Gonna Lead Me Out
TTITLE6=My Wonderful God
TTITLE7=A Piece Of The Old Rugged Cross
TTITLE8=In The Sweet By And By
TTITLE9=Ring Out The Message
EXTD=
EXTT0=
EXTT1=
EXTT2=
EXTT3=
EXTT4=
EXTT5=
EXTT6=
EXTT7=
EXTT8=
EXTT9=
PLAYORDER=
